<svg width="12" height="9" viewBox="0 0 12 9" fill="none" xmlns="http://www.w3.org/2000/svg">
<path d="M0.634766 8V0.890625H3.125C3.98763 0.890625 4.64193 1.05664 5.08789 1.38867C5.53385 1.71745 5.75684 2.20085 5.75684 2.83887C5.75684 3.18717 5.66732 3.49479 5.48828 3.76172C5.30924 4.02539 5.06022 4.21908 4.74121 4.34277C5.10579 4.43392 5.39225 4.61784 5.60059 4.89453C5.81217 5.17122 5.91797 5.50977 5.91797 5.91016C5.91797 6.59375 5.69987 7.11133 5.26367 7.46289C4.82747 7.81445 4.20573 7.99349 3.39844 8H0.634766ZM2.09961 4.9043V6.82324H3.35449C3.69954 6.82324 3.9681 6.74186 4.16016 6.5791C4.35547 6.41309 4.45312 6.18522 4.45312 5.89551C4.45312 5.24447 4.11621 4.91406 3.44238 4.9043H2.09961ZM2.09961 3.86914H3.18359C3.92253 3.85612 4.29199 3.56152 4.29199 2.98535C4.29199 2.66309 4.19759 2.43197 4.00879 2.29199C3.82324 2.14876 3.52865 2.07715 3.125 2.07715H2.09961V3.86914ZM9.79004 6.54004C9.79004 6.36751 9.70378 6.23242 9.53125 6.13477C9.36198 6.03385 9.08854 5.94434 8.71094 5.86621C7.45443 5.60254 6.82617 5.06868 6.82617 4.26465C6.82617 3.7959 7.01986 3.40527 7.40723 3.09277C7.79785 2.77702 8.30729 2.61914 8.93555 2.61914C9.60612 2.61914 10.1416 2.77702 10.542 3.09277C10.9456 3.40853 11.1475 3.81868 11.1475 4.32324H9.73633C9.73633 4.12142 9.67122 3.9554 9.54102 3.8252C9.41081 3.69173 9.20736 3.625 8.93066 3.625C8.69303 3.625 8.50911 3.67871 8.37891 3.78613C8.2487 3.89355 8.18359 4.03027 8.18359 4.19629C8.18359 4.35254 8.25684 4.47949 8.40332 4.57715C8.55306 4.67155 8.80371 4.75456 9.15527 4.82617C9.50684 4.89453 9.80306 4.97266 10.0439 5.06055C10.7894 5.33398 11.1621 5.80762 11.1621 6.48145C11.1621 6.96322 10.9554 7.35384 10.542 7.65332C10.1286 7.94954 9.59473 8.09766 8.94043 8.09766C8.49772 8.09766 8.10384 8.01953 7.75879 7.86328C7.41699 7.70378 7.14844 7.4873 6.95312 7.21387C6.75781 6.93717 6.66016 6.63932 6.66016 6.32031H7.99805C8.01107 6.57096 8.10384 6.76302 8.27637 6.89648C8.44889 7.02995 8.68001 7.09668 8.96973 7.09668C9.23991 7.09668 9.44336 7.04622 9.58008 6.94531C9.72005 6.84115 9.79004 6.70605 9.79004 6.54004Z" fill="#5A5A5A"/>
</svg>
